# xmcd CD database file
#
# Track frame offsets:
#	182
#	13120
#	26152
#	41980
#	54935
#	69755
#	84340
#	96230
#	112110
#	124927
#
# Disc length: 1860 seconds
#
# Revision: 0
# Processed by: cddbd v1.5.1PL2 Copyright (c) Steve Scherf et al.
# Submitted via: CDex 1.51
#
DISCID=8207420a
DTITLE=Jeff Craig - My Boots Are Out Dancing Again
DYEAR=2000
DGENRE=Country
TTITLE0=She Likes Country
TTITLE1=Partners For Life
TTITLE2=You Are More Beautiful
TTITLE3=Falling Off the Top of the World
TTITLE4=She Fits
TTITLE5=Paper Dream
TTITLE6=Beaing There with You
TTITLE7=Two Hearts
TTITLE8=My Boots Are Out Dancing Again
TTITLE9=Long Gone
EXTD=YEAR: 2000
EXTT0=
EXTT1=
EXTT2=
EXTT3=
EXTT4=
EXTT5=
EXTT6=
EXTT7=
EXTT8=
EXTT9=
PLAYORDER=
